<?xml version="1.0" encoding="UTF-8" standalone="no"?>
<!-- Created with Inkscape (http://www.inkscape.org/) -->

<svg
   xmlns:dc="http://purl.org/dc/elements/1.1/"
   xmlns:cc="http://creativecommons.org/ns#"
   xmlns:rdf="http://www.w3.org/1999/02/22-rdf-syntax-ns#"
   xmlns:svg="http://www.w3.org/2000/svg"
   xmlns="http://www.w3.org/2000/svg"
   xmlns:sodipodi="http://sodipodi.sourceforge.net/DTD/sodipodi-0.dtd"
   xmlns:inkscape="http://www.inkscape.org/namespaces/inkscape"
   width="169.545mm"
   height="45.578892mm"
   viewBox="0 0 169.545 45.578892"
   version="1.1"
   id="svg8"
   inkscape:version="0.92.2 5c3e80d, 2017-08-06"
   sodipodi:docname="logo.svg">
  <defs
     id="defs2" />
  <sodipodi:namedview
     id="base"
     pagecolor="#ffffff"
     bordercolor="#666666"
     borderopacity="1.0"
     inkscape:pageopacity="0.0"
     inkscape:pageshadow="2"
     inkscape:zoom="0.57384435"
     inkscape:cx="-311.18745"
     inkscape:cy="-203.89593"
     inkscape:document-units="mm"
     inkscape:current-layer="layer1"
     showgrid="false"
     inkscape:window-width="1920"
     inkscape:window-height="1013"
     inkscape:window-x="1920"
     inkscape:window-y="0"
     inkscape:window-maximized="1"
     inkscape:measure-start="137.889,524.907"
     inkscape:measure-end="116.026,524.901"
     inkscape:snap-global="false"
     fit-margin-top="0"
     fit-margin-left="0"
     fit-margin-right="0"
     fit-margin-bottom="0" />
  <metadata
     id="metadata5">
    <rdf:RDF>
      <cc:Work
         rdf:about="">
        <dc:format>image/svg+xml</dc:format>
        <dc:type
           rdf:resource="http://purl.org/dc/dcmitype/StillImage" />
        <dc:title />
      </cc:Work>
    </rdf:RDF>
  </metadata>
  <g
     inkscape:label="Layer 1"
     inkscape:groupmode="layer"
     id="layer1"
     transform="translate(-18.704408,-113.4565)">
    <g
       aria-label="T CTF"
       style="font-style:normal;font-variant:normal;font-weight:normal;font-stretch:normal;font-size:10.58333302px;line-height:125%;font-family:'Ubuntu Mono';-inkscape-font-specification:'Ubuntu Mono';letter-spacing:0px;word-spacing:0px;fill:#424242;fill-opacity:1;stroke:none;stroke-width:0.26458332px;stroke-linecap:butt;stroke-linejoin:miter;stroke-opacity:1"
       id="text20">
      <path
         d="m 48.478854,114.44427 v 4.93889 H 36.484409 v 38.735 h -5.785556 v -38.735 H 18.704408 v -4.93889 z"
         style="font-size:70.55555725px;line-height:145.2999115%;fill:#424242;fill-opacity:1;stroke-width:0.26458332px"
         id="path819" />
      <path
         d="m 118.96386,156.28372 q -2.46945,1.41111 -5.29167,2.04611 -2.75167,0.70556 -5.92667,0.70556 -3.88055,0 -7.19667,-1.34056 -3.245551,-1.41111 -5.64444,-4.16278 -2.398889,-2.82222 -3.81,-7.12611 -1.340555,-4.30389 -1.340555,-10.16 0,-5.57389 1.411111,-9.80722 1.481666,-4.23333 3.951111,-7.12611 2.469444,-2.89278 5.785553,-4.37445 3.31611,-1.48166 7.05556,-1.48166 2.61055,0 5.29167,0.70555 2.75166,0.70556 5.36222,2.32834 l -1.69334,4.79777 q -4.65666,-2.68111 -8.74889,-2.68111 -2.89277,0 -5.22111,1.27 -2.25777,1.19945 -3.880552,3.52778 -1.622778,2.32833 -2.54,5.57389 -0.846667,3.24555 -0.846667,7.26722 0,4.51556 0.917223,7.83167 0.987777,3.31611 2.681111,5.50333 1.693335,2.18722 4.021665,3.24556 2.39889,1.05833 5.15056,1.05833 2.04611,0 4.30389,-0.49389 2.25777,-0.56444 4.65666,-1.905 z"
         style="font-size:70.55555725px;line-height:145.2999115%;fill:#424242;fill-opacity:1;stroke-width:0.26458332px"
         id="path821" />
      <path
         d="m 154.31219,114.44427 v 4.93889 h -11.99445 v 38.735 h -5.78555 v -38.735 h -11.99445 v -4.93889 z"
         style="font-size:70.55555725px;line-height:145.2999115%;fill:#424242;fill-opacity:1;stroke-width:0.26458332px"
         id="path823" />
      <path
         d="m 163.48441,158.11816 v -43.67389 h 24.765 v 4.93889 h -18.97944 v 13.61723 h 16.72166 v 4.86833 h -16.72166 v 20.24944 z"
         style="font-size:70.55555725px;line-height:145.2999115%;fill:#424242;fill-opacity:1;stroke-width:0.26458332px"
         id="path825" />
    </g>
    <rect
       style="fill:#424242;fill-opacity:1;stroke-width:0.14342454"
       id="rect4518"
       width="5.7800002"
       height="43.665684"
       x="54.838608"
       y="114.44385" />
    <path
       sodipodi:type="star"
       style="fill:#68cade;fill-opacity:1;stroke-width:0.26458332"
       id="path4532"
       sodipodi:sides="3"
       sodipodi:cx="68.88501"
       sodipodi:cy="128.81566"
       sodipodi:r1="16.640869"
       sodipodi:r2="9.0980368"
       sodipodi:arg1="2.0911393"
       sodipodi:arg2="2.7384304"
       inkscape:flatsided="false"
       inkscape:rounded="0"
       inkscape:randomized="0"
       d="m 60.61154,143.25409 -0.09513,-10.86901 0.0013,-17.95367 9.4604,5.35212 15.547692,8.97795 -9.365269,5.51689 z"
       inkscape:transform-center-x="-3.6482282"
       inkscape:transform-center-y="0.021046906" />
  </g>
</svg>
